<svg xmlns="http://www.w3.org/2000/svg" width="100" height="100" viewBox="0 0 100 100">
  <path d="M0 0h100v100H0z" fill="none"/>
  <path d="M100 0H0v100h100V0zM1 1h98v98H1V1z" fill="none" stroke="rgba(0,0,0,0.05)" stroke-width="0.5"/>
  <path d="M10 0v100M20 0v100M30 0v100M40 0v100M50 0v100M60 0v100M70 0v100M80 0v100M90 0v100" stroke="rgba(0,0,0,0.05)" stroke-width="0.5"/>
  <path d="M0 10h100M0 20h100M0 30h100M0 40h100M0 50h100M0 60h100M0 70h100M0 80h100M0 90h100" stroke="rgba(0,0,0,0.05)" stroke-width="0.5"/>
</svg>

